# AST/ASF file generated using VICON BodyLanguage
# -----------------------------------------------
:version 1.10
:name VICON
:units
  mass 1.0
  length 0.45
  angle deg
:documentation
   .ast/.asf automatically generated from VICON data using
   VICON BodyBuilder and BodyLanguage model FoxedUp or BRILLIANT.MOD
:root
   order TX TY TZ RX RY RZ
   axis XYZ
   position 0 0 0  
   orientation 0 0 0 
:bonedata
  begin
     id 1 
     name lhipjoint
     direction 0.660183 -0.676772 0.325788 
     length 2.75133 
     axis 0 0 0  XYZ
  end
  begin
     id 2 
     name lfemur
     direction 0.34202 -0.939693 0  
     length 7.70317  
     axis 0 0 20  XYZ
    dof rx ry rz
    limits (-160.0 20.0)
           (-70.0 70.0)
           (-60.0 70.0)
  end
  begin
     id 3 
     name ltibia
     direction 0.342105 -0.939662 0   
     length 7.18701   
     axis 0 0 20   XYZ
    dof rx
    limits (-10.0 170.0)
  end
  begin
     id 4 
     name lfoot
     direction 0.14163 -0.389126 0.910232   
     length 2.41719   
     axis -90 7.62852e-016 20   XYZ
    dof rx rz
    limits (-45.0 90.0)
           (-70.0 20.0)
  end
  begin
     id 5 
     name ltoes
     direction 1.53533e-011 -4.21926e-011 1   
     length 1.18611   
     axis -90 7.62852e-016 20   XYZ
    dof rx
    limits (-90.0 20.0)
  end
  begin
     id 6 
     name rhipjoint
     direction -0.6658 -0.67229 0.323631   
     length 2.76968  
     axis 0 0 0  XYZ 
  end
  begin
     id 7 
     name rfemur
     direction -0.34202 -0.939693 0   
     length 7.92547   
     axis 0 0 -20   XYZ
    dof rx ry rz
    limits (-160.0 20.0)
           (-70.0 70.0)
           (-70.0 60.0)
  end
  begin
     id 8 
     name rtibia
     direction -0.342022 -0.939692 0   
     length 7.22641   
     axis 0 0 -20   XYZ
    dof rx
    limits (-10.0 170.0)
 end
 begin
     id 9 
     name rfoot
     direction -0.105675 -0.29034 0.951071   
     length 2.48149  
     axis -90 -7.62852e-016 -20   XYZ
    dof rx rz
    limits (-45.0 90.0)
           (-20.0 70.0)
  end
  begin
     id 10 
     name rtoes
     direction -1.5349e-011 -4.21859e-011 1   
     length 1.23343   
     axis -90 -7.62852e-016 -20   XYZ
    dof rx
    limits (-90.0 20.0)
  end
  begin
     id 11 
     name lowerback
     direction 0.0104173 0.993624 -0.112266   
     length 2.00527   
     axis 0 0 0   XYZ
    dof rx ry rz
    limits (-20.0 45.0)
           (-30.0 30.0)
           (-30.0 30.0)
  end
  begin
     id 12 
     name upperback
     direction 0.00733149 0.999856 -0.0152913   
     length 2.01385   
     axis 0 0 0   XYZ
    dof rx ry rz
    limits (-20.0 45.0)
           (-30.0 30.0)
           (-30.0 30.0)
  end
  begin
     id 13 
     name thorax
     direction 0.0026304 0.999318 0.036841   
     length 2.03734   
     axis 0 0 0   XYZ
    dof rx ry rz
    limits (-20.0 45.0)
           (-30.0 30.0)
           (-30.0 30.0)
  end
  begin
     id 14 
     name lowerneck
     direction 0.0293154 0.998757 0.0403082   
     length 1.65303   
     axis 0 0 0   XYZ
    dof rx ry rz
    limits (-20.0 45.0)
           (-30.0 30.0)
           (-30.0 30.0)
  end
  begin
     id 15 
     name upperneck
     direction -0.0376619 0.998184 -0.0470083   
     length 1.60926   
     axis 0 0 0   XYZ
    dof rx ry rz
    limits (-20.0 45.0)
           (-30.0 30.0)
           (-30.0 30.0)
  end
  begin
     id 16
     name head
     direction -0.0170133 0.999635 -0.0209778  
     length 1.73625  
     axis 0 0 0   XYZ
    dof rx ry rz
    limits (-20.0 45.0)
           (-30.0 30.0)
           (-30.0 30.0)
  end
  begin
     id 17 
     name lclavicle
     direction 0.919857 0.39181 -0.0186333  
     length 3.75313  
     axis 0 0 0   XYZ
    dof ry rz
    limits (-20.0 10.0)
           (0.0 20.0)
  end
  begin
     id 18 
     name lhumerus
     direction 1 -4.48988e-011 1.44029e-027   
     length 5.49313   
     axis 180 -30 -90   XYZ
    dof rx ry rz
    limits (-60.0 90.0)
           (-90.0 90.0)
           (-90.0 90.0)
  end
  begin
     id 19
     name lradius
     direction 1 -4.48924e-011 7.46281e-027   
     length 3.29037   
     axis 180 -30 -90   XYZ
    dof rx
    limits (-10.0 170.0)
  end
  begin
     id 20
     name lwrist
     direction 1 -4.48955e-011 2.19879e-026   
     length 1.64519   
     axis -1.34358e-014 90 90   XYZ
    dof ry
    limits (-180.0 0.0)
 end
  begin
     id 21 
     name lhand
     direction 1 -4.48978e-011 4.39747e-026   
     length 0.729656   
     axis -2.80598e-014 90 90   XYZ
    dof rx rz
    limits (-90.0 90.0)
           (-45.0 45.0)
  end
  begin
     id 22 
     name lfingers
     direction 1 -4.49071e-011 8.79411e-026   
     length 0.588268   
     axis -5.61193e-014 90 90   XYZ
    dof rx
    limits (0.0 90.0)
  end
  begin
     id 23
     name lthumb
     direction 0.707107 -6.34817e-011 0.707107   
     length 0.844638   
     axis -90 45 -9.86923e-015   XYZ
    dof rx rz
    limits (-45.0 45.0)
           (-45.0 45.0)
  end
  begin
     id 24 
     name rclavicle
     direction -0.919898 0.388279 0.0550233   
     length 3.7171  
     axis 0 0 0   XYZ 
    dof ry rz
    limits (-10.0 20.0)
           (-20.0 0.0)
  end
  begin
     id 25 
     name rhumerus
     direction -1 -4.48968e-011 9.98372e-028  
     length 5.23684   
     axis 180 30 90   XYZ
    dof rx ry rz
    limits (-90.0 60.0)
           (-90.0 90.0)
           (-90.0 90.0)
  end
  begin
     id 26 
     name rradius
     direction -1 -4.48956e-011 1.01023e-026   
     length 3.38251   
     axis 180 30 90   XYZ
    dof rx
    limits (-10.0 170.0)
  end
  begin
     id 27 
     name rwrist
     direction -1 -4.4892e-011 2.19886e-026   
     length 1.69126   
     axis -1.34358e-014 -90 -90   XYZ
    dof ry
    limits (-180.0 0.0)
  end
  begin
     id 28
     name rhand
     direction -1 -4.49024e-011 4.39727e-026   
     length 0.691454   
     axis -2.80598e-014 -90 -90   XYZ
    dof rx rz
    limits (-90.0 90.0)
           (-45.0 45.0)
  end
  begin
     id 29
     name rfingers
     direction -1 -4.49097e-011 8.79388e-026   
     length 0.557468   
     axis -5.61193e-014 -90 -90   XYZ
    dof rx
    limits (0.0 90.0)
  end
  begin
     id 30
     name rthumb
     direction -0.707107 -6.34938e-011 0.707107   
     length 0.800416   
     axis -90 -45 9.86923e-015   XYZ
    dof rx rz
    limits (-45.0 45.0)
           (-45.0 45.0)
  end
:hierarchy
  begin
    root lhipjoint rhipjoint lowerback
    lhipjoint lfemur
    lfemur ltibia
    ltibia lfoot
    lfoot ltoes
    rhipjoint rfemur
    rfemur rtibia
    rtibia rfoot
    rfoot rtoes
    lowerback upperback
    upperback thorax
    thorax lowerneck lclavicle rclavicle
    lowerneck upperneck
    upperneck head
    lclavicle lhumerus
    lhumerus lradius
    lradius lwrist
    lwrist lhand lthumb
    lhand lfingers
    rclavicle rhumerus
    rhumerus rradius
    rradius rwrist
    rwrist rhand rthumb
    rhand rfingers
  end

#!OML:ASF H:\BabyWalks\Project 1\Capture day 1\Session 1\baby.ASF
:FULLY-SPECIFIED
:DEGREES
1
root -38.3798 17.5582 -2.99129 -14.7951 73.3531 -18.5318
lowerback 16.9726 -1.21694 0.702139
upperback 5.78551 -1.03973 3.34972
thorax -3.28022 -0.414577 3.3362
lowerneck -1.02778 4.76021 0.099645
upperneck -13.3913 6.28216 -3.79649
head -4.06494 3.38252 -1.48493
rclavicle 6.26172e-015 -9.93923e-016
rhumerus -53.3094 35.5519 -91.6971
rradius 47.1041
rwrist -6.02591
rhand -10.4901 -15.4306
rfingers 7.12502
rthumb 15.5116 -44.8284
lclavicle 6.26172e-015 -9.93923e-016
lhumerus -51.7491 -6.86245 89.0834
lradius 54.8666
lwrist 2.9553
lhand 9.10869 10.707
lfingers 7.12502
lthumb 34.2805 37.4281
rfemur 4.78968 10.9473 25.322
rtibia 11.799
rfoot -22.5939 -5.98658
rtoes 9.95084
lfemur -22.3318 0.945074 -9.66317
ltibia 35.18
lfoot -18.2125 -3.81886
ltoes 9.80984
2
root -38.3821 17.5588 -2.99106 -14.6991 73.3109 -18.4376
lowerback 16.9503 -1.1979 0.694359
upperback 5.79382 -1.01722 3.34645
thorax -3.26077 -0.403704 3.33206
lowerneck -0.991399 4.77186 0.119315
upperneck -13.4272 6.29791 -3.80011
head -4.08379 3.39024 -1.49253
rclavicle 7.34509e-014 3.33958e-014
rhumerus -53.2786 35.5365 -91.7033
rradius 47.0585
rwrist -6.03569
rhand -10.5075 -15.3857
rfingers 7.12502
rthumb 15.4949 -44.7848
lclavicle 7.34509e-014 3.33958e-014
lhumerus -51.7293 -6.88606 89.0722
lradius 54.8692
lwrist 2.94177
lhand 9.08292 10.6259
lfingers 7.12502
lthumb 34.256 37.3525
rfemur 4.66354 10.9528 25.299
rtibia 12.0255
rfoot -22.6505 -5.95086
rtoes 9.73259
lfemur -22.3215 0.936075 -9.67092
ltibia 35.161
lfoot -18.1902 -3.76962
ltoes 9.50283
3
root -38.4148 17.5569 -2.98588 -15.0761 73.8097 -18.998
lowerback 17.1034 -1.34253 0.663687
upperback 5.66586 -1.20206 3.40749
thorax -3.4653 -0.494041 3.45713
lowerneck -1.04334 4.72708 0.184954
upperneck -13.365 6.2362 -3.82803
head -4.04958 3.35649 -1.50717
rclavicle 4.96962e-014 4.17448e-015
rhumerus -53.2549 35.4915 -91.7205
rradius 47.0065
rwrist -6.00128
rhand -10.5867 -15.4669
rfingers 7.12502
rthumb 15.4186 -44.8719
lclavicle 4.96962e-014 4.17448e-015
lhumerus -51.7144 -6.93708 89.0571
lradius 54.8876
lwrist 2.93268
lhand 9.14592 10.7105
lfingers 7.12502
lthumb 34.3158 37.4236
rfemur 4.35256 10.8113 25.3912
rtibia 12.2097
rfoot -22.6803 -6.35669
rtoes 9.44202
lfemur -22.7902 0.784846 -9.63844
ltibia 35.1515
lfoot -17.9388 -4.08014
ltoes 9.12025
4
root -38.417 17.5576 -2.9856 -14.9186 73.7815 -18.8345
lowerback 17.0981 -1.32543 0.639947
upperback 5.66311 -1.18475 3.39767
thorax -3.46609 -0.485763 3.45669
lowerneck -1.04216 4.7303 0.218079
upperneck -13.3325 6.23866 -3.84936
head -4.0362 3.35637 -1.51885
rclavicle 3.39425e-014 8.15017e-015
rhumerus -53.259 35.4404 -91.7137
rradius 47.0135
rwrist -5.96666
rhand -10.5006 -15.5493
rfingers 7.12502
rthumb 15.5015 -44.9479
lclavicle 3.39425e-014 8.15017e-015
lhumerus -51.7046 -6.95453 89.024
lradius 54.8878
lwrist 2.94238
lhand 9.28408 10.7766
lfingers 7.12502
lthumb 34.447 37.46
rfemur 4.27267 10.837 25.3514
rtibia 12.3617
rfoot -22.7218 -6.34534
rtoes 9.29965
lfemur -22.7732 0.783932 -9.67014
ltibia 35.136
lfoot -17.9655 -4.05016
ltoes 9.0473
5
root -38.4169 17.5565 -2.98564 -14.9155 73.6973 -18.7923
lowerback 17.0805 -1.29876 0.670244
upperback 5.69094 -1.14542 3.39391
thorax -3.43019 -0.466221 3.42668
lowerneck -0.977356 4.7404 0.189584
upperneck -13.3576 6.2557 -3.80091
head -4.0599 3.36444 -1.50168
rclavicle -4.37326e-014 7.35503e-015
rhumerus -53.2542 35.3982 -91.7064
rradius 47.0163
rwrist -5.94806
rhand -10.5125 -15.5215
rfingers 7.12502
rthumb 15.4901 -44.9209
lclavicle -4.37326e-014 7.35503e-015
lhumerus -51.6832 -7.00307 88.9991
lradius 54.8988
lwrist 2.94131
lhand 9.34911 10.8558
lfingers 7.12502
lthumb 34.5087 37.5252
rfemur 4.23026 10.8611 25.3626
rtibia 12.5171
rfoot -22.7326 -6.2951
rtoes 9.16842
lfemur -22.6916 0.767141 -9.64422
ltibia 35.1294
lfoot -18.015 -3.96192
ltoes 9.03799
6
root -38.4227 17.5561 -2.98464 -14.9012 73.7298 -18.7862
lowerback 17.0889 -1.30306 0.664555
upperback 5.68472 -1.1514 3.39771
thorax -3.44069 -0.469122 3.43549
lowerneck -0.948808 4.73953 0.201547
upperneck -13.3602 6.25508 -3.79334
head -4.06622 3.36321 -1.50235
rclavicle -5.95857e-014 4.81059e-014
rhumerus -53.2465 35.3587 -91.7042
rradius 47.0112
rwrist -5.93868
rhand -10.5194 -15.5417
rfingers 7.12502
rthumb 15.4834 -44.9416
lclavicle -5.95857e-014 4.81059e-014
lhumerus -51.6628 -7.03889 88.9727
lradius 54.9041
lwrist 2.93911
lhand 9.43533 10.928
lfingers 7.12502
lthumb 34.5906 37.5787
rfemur 4.17554 10.853 25.3611
rtibia 12.5813
rfoot -22.707 -6.32772
rtoes 9.00132
lfemur -22.7203 0.737508 -9.64613
ltibia 35.1105
lfoot -17.9977 -3.96151
ltoes 8.93567
7
root -38.4277 17.5557 -2.98369 -14.8743 73.753 -18.7605
lowerback 17.0913 -1.30403 0.657772
upperback 5.68364 -1.15351 3.39976
thorax -3.44279 -0.47015 3.44205
lowerneck -0.916462 4.73822 0.215105
upperneck -13.3682 6.25363 -3.7884
head -4.07506 3.36171 -1.50446
rclavicle -6.43565e-014 4.81059e-014
rhumerus -53.2398 35.3195 -91.6994
rradius 47.0143
rwrist -5.93935
rhand -10.5256 -15.5655
rfingers 7.12502
rthumb 15.4774 -44.966
lclavicle -6.43565e-014 4.81059e-014
lhumerus -51.6395 -7.07532 88.9442
lradius 54.9095
lwrist 2.93671
lhand 9.53108 11.0147
lfingers 7.12502
lthumb 34.6815 37.6446
rfemur 4.12939 10.8472 25.3557
rtibia 12.6452
rfoot -22.6813 -6.35134
rtoes 8.84757
lfemur -22.7374 0.710475 -9.65166
ltibia 35.0957
lfoot -17.9912 -3.95524
ltoes 8.86576
8
root -38.4312 17.5556 -2.98284 -14.8233 73.7512 -18.7005
lowerback 17.0838 -1.29701 0.650507
upperback 5.68981 -1.14579 3.39875
thorax -3.43256 -0.46641 3.44326
lowerneck -0.878882 4.73818 0.228966
upperneck -13.3825 6.25372 -3.78511
head -4.08713 3.36115 -1.50763
rclavicle 7.30534e-015 -1.19271e-015
rhumerus -53.2317 35.2789 -91.6901
rradius 47.0365
rwrist -5.97242
rhand -10.5029 -15.638
rfingers 7.12502
rthumb 15.4993 -45.0367
lclavicle 7.30534e-015 -1.19271e-015
lhumerus -51.6143 -7.11327 88.9146
lradius 54.913
lwrist 2.93338
lhand 9.63191 11.106
lfingers 7.12502
lthumb 34.7771 37.7138
rfemur 4.08693 10.8469 25.3442
rtibia 12.7254
rfoot -22.6661 -6.3529
rtoes 8.70386
lfemur -22.7285 0.69469 -9.6609
ltibia 35.0752
lfoot -17.9928 -3.93565
ltoes 8.81905
9
root -38.4347 17.5555 -2.9818 -14.7753 73.7546 -18.6441
lowerback 17.0737 -1.29088 0.641169
upperback 5.697 -1.13959 3.39852
thorax -3.41973 -0.463442 3.44669
lowerneck -0.842315 4.73542 0.250091
upperneck -13.3996 6.24963 -3.78911
head -4.09961 3.35855 -1.51441
rclavicle -5.0044e-014 2.44505e-014
rhumerus -53.2202 35.2364 -91.6757
rradius 47.0724
rwrist -6.02617
rhand -10.4609 -15.7468
rfingers 7.12502
rthumb 15.5398 -45.1424
lclavicle -5.0044e-014 2.44505e-014
lhumerus -51.5855 -7.15297 88.8841
lradius 54.9155
lwrist 2.92803
lhand 9.73644 11.1966
lfingers 7.12502
lthumb 34.8763 37.7815
rfemur 4.04738 10.8447 25.3332
rtibia 12.7995
rfoot -22.6465 -6.35612
rtoes 8.56597
lfemur -22.7213 0.679912 -9.6707
ltibia 35.0531
lfoot -17.9917 -3.923
ltoes 8.7782
